# xmcd
#
# Track frame offsets:
#	150
#	15643
#	33310
#	45900
#	63077
#	78279
#	95529
#	111897
#	131270
#	144410
#	162047
#	180394
#	197490
#	211391
#	228265
#	243463
#	257514
#	270908
#	282562
#	300444
#	316761
#	330698
#
# Disc length: 4594 seconds
#
# Revision: 0
# Processed by: cddbd v1.5.2PL0 Copyright (c) Steve Scherf et al.
# Submitted via: EasyCDDAExtractor 11.5.0.1
#
DISCID=1411f016
DTITLE=Various Artist - NCT 087
DYEAR=2006
DGENRE=Country
TTITLE0=Faith Hill - Sunshine And Summertime
TTITLE1=Lonestar - Mountains
TTITLE2=Gretchen Wilson - California Girls
TTITLE3=Randy Rogers Band - Kiss Me In The Dark
TTITLE4=Jason Aldean - Amarillo Sky
TTITLE5=Blue County - Firecrackers And Ferris Wheels
TTITLE6=Taylor Swift - Tim McGraw
TTITLE7=Dixie Chicks - Everybody Knows
TTITLE8=Julie Roberts - Girl Next Door
TTITLE9=Rushlow Harris - That's So You
TTITLE10=Shooter Jennings - Gone To Carolina
TTITLE11=Steve Azar - You Don't Know A Thing
TTITLE12=Stoney Larue - One Chord Song
TTITLE13=Tracy Byrd - Cheapest Motel
TTITLE14=Jesse and Noah - Daddy's Got A Shotgun
TTITLE15=Collin Raye - Hurricane Jane
TTITLE16=Rhonda Vincent duet with Dolly Parton - Heartbreaker's Alibi
TTITLE17=Kevin Sharp - You Are The Reason Why
TTITLE18=Keith Anderson - Everytime I Hear Your Name
TTITLE19=Great Divide - The Plan
TTITLE20=Kentucky Headhunters - Take These Chains From My Heart
TTITLE21=The Elms - Nothin' To Do With Love
EXTD=
EXTT0=
EXTT1=
EXTT2=
EXTT3=
EXTT4=
EXTT5=
EXTT6=
EXTT7=
EXTT8=
EXTT9=
EXTT10=
EXTT11=
EXTT12=
EXTT13=
EXTT14=
EXTT15=
EXTT16=
EXTT17=
EXTT18=
EXTT19=
EXTT20=
EXTT21=
PLAYORDER=
